<svg width="47" height="50" viewBox="0 0 47 50" fill="none" xmlns="http://www.w3.org/2000/svg">
<path d="M6.09447 44.6822L6.50931 45.7193C6.74296 46.3034 7.09283 46.834 7.5377 47.2789C8.40891 48.1501 9.59053 48.6395 10.8226 48.6395H13.2846C14.4228 48.6395 15.5536 48.456 16.6333 48.0961L19.0729 47.2829L19.2029 47.2569C21.3719 46.8231 23.5785 46.6046 25.7905 46.6046H27.129C28.9865 46.6046 30.8369 46.8324 32.639 47.2829L34.6468 48.086C35.5608 48.4517 36.5363 48.6395 37.5208 48.6395C39.1952 48.6395 40.8244 48.0965 42.1639 47.0918L42.5887 46.7732C42.7384 46.6609 42.8799 46.5382 43.0122 46.4059C43.7536 45.6645 44.1701 44.659 44.1701 43.6104V41.5282C44.1701 39.9653 43.7623 38.4295 42.9869 37.0726L41.4569 34.3952L39.2847 31.1369C38.0227 29.2439 36.5768 27.4802 34.9681 25.8714L32.8212 23.7245C32.2497 23.153 31.6102 22.6537 30.9171 22.2379C29.3807 21.316 27.6227 20.8291 25.831 20.8291H23.5066C21.9369 20.8291 20.3968 21.2557 19.0509 22.0633C18.1682 22.5928 17.387 23.2756 16.744 24.0793L9.57665 33.0386L6.8867 37.0735C5.98696 38.4231 5.50684 40.0088 5.50684 41.6309C5.50684 42.6761 5.70628 43.7117 6.09447 44.6822Z" stroke="#FFB820" stroke-width="2.71321"/>
<path d="M17.9225 38.4693L18.0648 38.8154C18.1492 39.0208 18.2749 39.2068 18.4341 39.3617C18.7372 39.6566 19.1434 39.8217 19.5664 39.8217H20.4487C20.8463 39.8217 21.2415 39.7592 21.6197 39.6365L22.4768 39.3584L22.5214 39.3498C23.2833 39.2015 24.0576 39.1268 24.8337 39.1268H25.3051C25.9559 39.1268 26.6044 39.2046 27.2368 39.3584L27.9406 39.6324C28.262 39.7575 28.6038 39.8217 28.9486 39.8217C29.5375 39.8217 30.1112 39.6346 30.5868 39.2874L30.8069 39.1268C31.1112 38.8307 31.2829 38.4241 31.2829 37.9994V37.3956C31.2829 36.861 31.1401 36.336 30.8694 35.8749L30.3309 34.9578L29.5766 33.8567C29.1285 33.2027 28.6166 32.5947 28.0485 32.0418L27.3062 31.3194C27.102 31.1207 26.8745 30.9477 26.6285 30.804C26.0917 30.4906 25.4813 30.3254 24.8597 30.3254H24.0202C23.477 30.3254 22.9437 30.4698 22.4746 30.7436C22.1612 30.9266 21.8828 31.1638 21.6524 31.4441L19.1448 34.4945L18.1963 35.879C17.884 36.335 17.7168 36.8749 17.7168 37.4276C17.7168 37.7849 17.7867 38.1388 17.9225 38.4693Z" stroke="#FFB820" stroke-width="2.71321"/>
<path d="M9.53605 10.9901L11.9276 14.065C12.6021 14.9321 12.9682 15.9993 12.9682 17.0979V17.956C12.9682 19.3013 12.2082 20.5311 11.0049 21.1327C10.5118 21.3793 9.96798 21.5076 9.4166 21.5076H8.89075C7.57846 21.5076 6.30524 21.061 5.28051 20.2412L4.28785 19.4471C3.74562 19.0133 3.25311 18.5208 2.81932 17.9786L1.92458 16.8601C1.16993 15.9168 0.758789 14.7448 0.758789 13.5367V13.0716C0.758789 11.9584 1.20098 10.8909 1.9881 10.1038C2.92224 9.16964 4.24167 8.72983 5.54947 8.91665L6.09825 8.99505C7.45939 9.1895 8.6919 9.90475 9.53605 10.9901Z" fill="#FFB820"/>
<path d="M21.1505 7.83816L21.5942 10.6429C21.7658 11.728 21.5709 12.8393 21.0402 13.8012L20.6257 14.5525C19.9758 15.7304 18.7163 16.4401 17.3721 16.3856C16.8212 16.3632 16.283 16.2129 15.8002 15.9466L15.3398 15.6926C14.1908 15.0586 13.2917 14.0525 12.7905 12.8397L12.305 11.6649C12.0398 11.0231 11.8464 10.354 11.7286 9.66966C11.3661 7.56546 11.7306 5.40054 12.762 3.531L13.1346 2.85562L13.1804 2.79039C13.8689 1.80784 15.093 1.35302 16.2561 1.64758C16.6289 1.74201 16.9791 1.90992 17.2862 2.14148L18.0962 2.75218C19.7348 3.98771 20.8299 5.81112 21.1505 7.83816Z" fill="#FFB820"/>
<path d="M41.5715 18.7503L40.0927 19.8734C39.2179 20.5379 38.1465 20.8918 37.0481 20.8791L36.19 20.8693C34.8448 20.8539 33.6238 20.0797 33.0361 18.8697C32.7952 18.3737 32.673 17.8285 32.6794 17.2771L32.6854 16.7513C32.7005 15.4391 33.1617 14.1711 33.9932 13.1558L34.7986 12.1724C35.2386 11.6351 35.7367 11.1483 36.2839 10.7208C37.9664 9.40616 40.0463 8.7033 42.1813 8.72781L42.9526 8.73667L43.3567 8.73086C44.82 8.70984 45.9276 10.0471 45.6345 11.4808L45.5407 12.088C45.1308 14.7392 43.7078 17.1277 41.5715 18.7503Z" fill="#FFB820"/>
<path d="M33.8786 9.84378L33.2154 12.6049C32.9588 13.6731 32.3535 14.6252 31.4952 15.3109L30.8247 15.8464C29.7736 16.686 28.3384 16.8597 27.1174 16.2951C26.6169 16.0637 26.1772 15.7189 25.8331 15.2881L25.5049 14.8773C24.6858 13.8519 24.2401 12.5784 24.2411 11.2661L24.242 9.99487C24.2425 9.30047 24.32 8.60827 24.4729 7.93092C24.9431 5.84815 26.1082 3.98742 27.7764 2.65479L28.3791 2.17337L28.4463 2.13059C29.4584 1.48626 30.7634 1.5344 31.7252 2.25156C32.0336 2.48146 32.2929 2.7706 32.4881 3.10204L33.0027 3.97617C34.0439 5.74466 34.358 7.8483 33.8786 9.84378Z" stroke="#FFB820" stroke-width="2.71321"/>
</svg>