<svg width="131" height="38" viewBox="0 0 131 38" fill="none" xmlns="http://www.w3.org/2000/svg">
<path d="M1.22389 33.2244L7.5 25.5L1.5 19L1.22361 18.4472C1.08284 18.1657 1.08284 17.8343 1.22361 17.5528C1.393 17.214 1.73926 17 2.11803 17H13L15.8363 20.2415C16.202 20.6595 16.8382 20.6994 17.2533 20.3304L21 17H30.5701C31.3809 17 31.8546 17.9143 31.387 18.5767L26.5 25.5L32 33.5L32.2764 34.0528C32.4172 34.3343 32.4172 34.6657 32.2764 34.9472C32.107 35.286 31.7607 35.5 31.382 35.5H20L17.3838 31.7626C16.9685 31.1692 16.0797 31.2005 15.7071 31.8215L13.5 35.5L2.43949 35.9809C2.15944 35.9931 1.88715 35.8871 1.68894 35.6889L1.29289 35.2929C1.10536 35.1054 1 34.851 1 34.5858V33.855C1 33.6254 1.07906 33.4027 1.22389 33.2244Z" stroke="white" stroke-width="2"/>
<path d="M38.9332 33.5829L39.239 34.3474C39.4112 34.778 39.6691 35.1691 39.997 35.497C40.6392 36.1392 41.5102 36.5 42.4184 36.5H44.2333C45.0723 36.5 45.9058 36.3647 46.7017 36.0994L48.5 35.5L48.5958 35.4808C50.1947 35.1611 51.8213 35 53.4518 35H54.4384C55.8076 35 57.1717 35.1679 58.5 35.5L59.98 36.092C60.6538 36.3615 61.3729 36.5 62.0986 36.5C63.3328 36.5 64.5338 36.0997 65.5212 35.3591L65.8343 35.1243C65.9446 35.0415 66.0489 34.9511 66.1464 34.8536C66.693 34.307 67 33.5658 67 32.7929V31.258C67 30.106 66.6994 28.9739 66.1278 27.9736L65 26L63.3988 23.5982C62.4685 22.2028 61.4027 20.9027 60.2169 19.7169L58.6343 18.1343C58.213 17.713 57.7417 17.345 57.2308 17.0385C56.0982 16.3589 54.8023 16 53.4816 16H51.7682C50.6112 16 49.4759 16.3145 48.4838 16.9097C47.8331 17.3001 47.2573 17.8034 46.7833 18.3959L41.5 25L39.5171 27.9743C38.8539 28.9691 38.5 30.138 38.5 31.3337C38.5 32.1041 38.647 32.8675 38.9332 33.5829Z" stroke="white" stroke-width="2"/>
<path d="M47.6517 29.0031L47.7565 29.2582C47.8188 29.4097 47.9114 29.5467 48.0288 29.6609C48.2522 29.8783 48.5516 30 48.8634 30H49.5137C49.8069 30 50.0981 29.9539 50.377 29.8635L51.0088 29.6585L51.0417 29.6521C51.6032 29.5428 52.174 29.4878 52.7461 29.4878H53.0936C53.5733 29.4878 54.0514 29.5451 54.5175 29.6585L55.0363 29.8605C55.2732 29.9527 55.5252 30 55.7794 30C56.2134 30 56.6363 29.8621 56.9869 29.6062L57.1491 29.4878C57.3735 29.2695 57.5 28.9698 57.5 28.6567V28.2117C57.5 27.8175 57.3948 27.4306 57.1952 27.0907L56.7982 26.4146L56.2423 25.603C55.912 25.1209 55.5346 24.6727 55.1158 24.2652L54.5687 23.7327C54.4182 23.5862 54.2504 23.4587 54.0691 23.3528C53.6734 23.1218 53.2235 23 52.7653 23H52.1464C51.7461 23 51.3529 23.1064 51.0072 23.3083C50.7762 23.4431 50.5709 23.618 50.4011 23.8246L48.5526 26.0732L47.8535 27.0937C47.6232 27.4299 47.5 27.8278 47.5 28.2352C47.5 28.4986 47.5515 28.7595 47.6517 29.0031Z" stroke="white" stroke-width="2"/>
<path d="M41.47 8.74716L43.2329 11.0138C43.7301 11.653 44 12.4396 44 13.2494V13.882C44 14.8736 43.4397 15.7801 42.5528 16.2236C42.1893 16.4054 41.7884 16.5 41.382 16.5H40.9943C40.027 16.5 39.0885 16.1708 38.3331 15.5665L37.6014 14.9811C37.2017 14.6614 36.8386 14.2983 36.5189 13.8986L35.8593 13.0742C35.3031 12.3788 35 11.5149 35 10.6244V10.2815C35 9.46097 35.326 8.67404 35.9062 8.09384C36.5947 7.40525 37.5673 7.08105 38.5314 7.21877L38.9359 7.27656C39.9392 7.41989 40.8478 7.94713 41.47 8.74716Z" fill="white"/>
<path d="M50.0325 6.42396L50.3595 8.49146C50.486 9.29129 50.3423 10.1105 49.9512 10.8195L49.6456 11.3734C49.1666 12.2416 48.2381 12.7647 47.2473 12.7245C46.8412 12.7081 46.4445 12.5973 46.0886 12.401L45.7492 12.2137C44.9022 11.7464 44.2395 11.0048 43.87 10.1108L43.5121 9.24477C43.3166 8.77171 43.1741 8.27846 43.0872 7.77403C42.8201 6.22294 43.0887 4.62711 43.849 3.24901L44.1237 2.75116L44.1574 2.70308C44.6649 1.97881 45.5673 1.64355 46.4246 1.86068C46.6994 1.93029 46.9576 2.05406 47.184 2.22475L47.781 2.67491C48.9889 3.58567 49.7961 4.92976 50.0325 6.42396Z" fill="white"/>
<path d="M65.0844 14.4676L63.9944 15.2955C63.3495 15.7853 62.5598 16.0461 61.7501 16.0368L61.1176 16.0296C60.126 16.0182 59.2259 15.4476 58.7927 14.5556C58.6151 14.19 58.5251 13.7881 58.5297 13.3817L58.5342 12.9941C58.5453 12.0268 58.8853 11.0921 59.4982 10.3437L60.0919 9.61877C60.4163 9.22277 60.7834 8.86391 61.1868 8.54876C62.427 7.57971 63.9601 7.06161 65.5339 7.07967L66.1025 7.0862L66.4004 7.08192C67.479 7.06643 68.2955 8.05219 68.0794 9.10902L68.0102 9.55657C67.7081 11.5108 66.6592 13.2715 65.0844 14.4676Z" fill="white"/>
<path d="M59.4131 7.90237L58.9242 9.93767C58.7351 10.7251 58.2889 11.4269 57.6562 11.9323L57.162 12.3271C56.3872 12.946 55.3292 13.0741 54.4291 12.6579C54.0602 12.4873 53.7361 12.2331 53.4824 11.9156L53.2405 11.6127C52.6368 10.8569 52.3082 9.91814 52.3089 8.95081L52.3096 8.01374C52.31 7.50188 52.3671 6.99164 52.4798 6.49234C52.8264 4.95706 53.6852 3.58545 54.915 2.60313L55.3592 2.24825L55.4088 2.21672C56.1548 1.74176 57.1167 1.77725 57.8258 2.30589C58.053 2.47536 58.2442 2.68849 58.3881 2.93281L58.7674 3.57716C59.5349 4.88077 59.7664 6.43143 59.4131 7.90237Z" stroke="white" stroke-width="2"/>
<path d="M94.5 17H72C71.4477 17 71 17.4477 71 18V21.5C71 22.0523 71.4477 22.5 72 22.5H76.5C77.0523 22.5 77.5 22.9477 77.5 23.5V34.5C77.5 35.0523 77.9477 35.5 78.5 35.5H88C88.5523 35.5 89 35.0523 89 34.5V23.5C89 22.9477 89.4477 22.5 90 22.5H94.5C95.0523 22.5 95.5 22.0523 95.5 21.5V18C95.5 17.4477 95.0523 17 94.5 17Z" stroke="white" stroke-width="2"/>
<path d="M107 17.5H100C99.4477 17.5 99 17.9477 99 18.5V35C99 35.5523 99.4477 36 100 36H110.086C110.351 36 110.605 35.8946 110.793 35.7071L115.93 30.57C115.977 30.5235 116.018 30.4724 116.055 30.4176L118.168 27.2481C118.717 26.4248 120 26.8134 120 27.8028V35C120 35.5523 120.448 36 121 36H128.5C129.052 36 129.5 35.5523 129.5 35V18C129.5 17.4477 129.052 17 128.5 17H118.966C118.671 17 118.39 17.1306 118.2 17.3568L109.766 27.398C109.165 28.1126 108 27.6881 108 26.7548V18.5C108 17.9477 107.552 17.5 107 17.5Z" stroke="white" stroke-width="2"/>
</svg>
