<svg width="34" height="34" viewBox="0 0 34 34" fill="none" xmlns="http://www.w3.org/2000/svg">
<path d="M17.369 6.72549C17.2702 6.63091 17.1386 6.57812 17.0018 6.57812C16.865 6.57812 16.7334 6.63091 16.6346 6.72549L4.40918 18.4044C4.35726 18.454 4.31595 18.5137 4.28776 18.5798C4.25957 18.6459 4.24507 18.717 4.24516 18.7888L4.24316 29.7499C4.24316 30.3134 4.46705 30.8539 4.86556 31.2525C5.26408 31.651 5.80458 31.8749 6.36816 31.8749H12.7498C13.0316 31.8749 13.3018 31.7629 13.5011 31.5637C13.7004 31.3644 13.8123 31.0942 13.8123 30.8124V21.7811C13.8123 21.6402 13.8683 21.5051 13.9679 21.4055C14.0675 21.3058 14.2027 21.2499 14.3436 21.2499H19.6561C19.797 21.2499 19.9321 21.3058 20.0317 21.4055C20.1313 21.5051 20.1873 21.6402 20.1873 21.7811V30.8124C20.1873 31.0942 20.2992 31.3644 20.4985 31.5637C20.6978 31.7629 20.968 31.8749 21.2498 31.8749H27.6288C28.1924 31.8749 28.7329 31.651 29.1314 31.2525C29.5299 30.8539 29.7538 30.3134 29.7538 29.7499V18.7888C29.7539 18.717 29.7394 18.6459 29.7112 18.5798C29.683 18.5137 29.6417 18.454 29.5898 18.4044L17.369 6.72549Z" fill="black"/>
<path d="M32.5995 16.2131L27.6323 11.4611V4.25C27.6323 3.96821 27.5204 3.69796 27.3211 3.4987C27.1219 3.29944 26.8516 3.1875 26.5698 3.1875H23.3823C23.1005 3.1875 22.8303 3.29944 22.631 3.4987C22.4318 3.69796 22.3198 3.96821 22.3198 4.25V6.375L18.4736 2.69742C18.1137 2.33352 17.5784 2.125 17 2.125C16.4236 2.125 15.8897 2.33352 15.5298 2.69809L1.40518 16.2118C0.992135 16.6102 0.940338 17.2656 1.3162 17.6973C1.41058 17.8062 1.52615 17.8948 1.65586 17.9577C1.78558 18.0206 1.92673 18.0564 2.07073 18.063C2.21473 18.0696 2.35856 18.0468 2.49348 17.996C2.62839 17.9452 2.75156 17.8675 2.85549 17.7677L16.6348 4.60063C16.7337 4.50605 16.8652 4.45326 17.002 4.45326C17.1388 4.45326 17.2704 4.50605 17.3692 4.60063L31.1499 17.7677C31.3529 17.9623 31.6248 18.0686 31.906 18.0631C32.1872 18.0576 32.4547 17.9409 32.65 17.7384C33.0577 17.3161 33.0239 16.6188 32.5995 16.2131Z" fill="black"/>
</svg>
