<svg width="125" height="125" viewBox="0 0 125 125" fill="none" xmlns="http://www.w3.org/2000/svg">
<g clip-path="url(#clip0_173_244)">
<path d="M64.7807 54.4315C59.7234 52.6584 56.6177 53.3807 50.9666 57.8658L49.4971 59.0629L47.0595 61.1682C46.7649 61.4286 46.4711 61.6899 46.1781 61.952C44.6756 63.2924 42.9789 64.0699 40.2801 64.7973L37.6826 65.4569C33.2389 66.5965 30.6943 67.8167 28.5163 70.6542C27.5872 71.7826 26.6195 73.659 26.0574 75.299C23.7913 81.7625 26.6255 88.3793 32.7633 90.5313L33.6985 90.8334C34.1625 90.9702 34.6179 91.0826 35.1005 91.1786L36.1084 91.347L36.6518 91.4171L37.8648 91.5283L38.5459 91.5735L40.9581 91.6879L44.2078 91.7818L46.1338 91.8719C48.3659 92.0092 50.0334 92.2841 51.3476 92.7449C52.6656 93.207 54.1345 94.0361 55.965 95.3189L57.5255 96.4512L60.1276 98.4046L62.0779 99.8241L63.1605 100.565C63.4999 100.787 63.8165 100.989 64.1231 101.169L65.0155 101.667C65.4525 101.894 65.8783 102.09 66.3262 102.273L67.2453 102.621C73.3831 104.773 79.7287 101.375 82.0029 94.8884C82.5765 93.2524 82.9846 91.1927 82.9642 89.6066C83.0326 86.5157 82.0133 84.0115 79.7521 80.6072L79.0227 79.534L77.5102 77.3688C75.6819 74.7057 74.777 72.8568 74.4263 70.7892L74.0434 68.5683L73.6582 66.5746C72.063 58.7186 70.2787 56.3592 64.7807 54.4315ZM98.6184 53.3885L98.5035 53.3482C93.8062 51.7873 88.0679 54.2756 83.9983 59.0355C78.9703 64.9092 77.6679 72.8206 82.2964 77.0807C83.1308 77.8422 84.0966 78.4132 85.1464 78.7812C89.8627 80.4349 95.6794 77.9439 99.7856 73.141C104.797 67.2657 106.085 59.3451 101.482 55.0982C100.654 54.3418 99.6772 53.7594 98.6184 53.3885ZM62.7857 23.6159C62.3566 23.4654 62.0742 23.375 61.7311 23.3106L61.3533 23.247C55.207 21.9783 49.4977 27.6476 48.0984 35.1851C46.8233 42.1595 49.5167 49.0798 55.1028 51.0383L55.826 51.2704C55.9368 51.299 56.0487 51.3238 56.1612 51.3449L56.5352 51.4072C62.6854 52.6772 68.3907 47.0066 69.7901 39.4691C71.0756 32.4897 68.3794 25.5771 62.7857 23.6159Z" fill="#F27B0D" fill-opacity="0.7"/>
<path d="M85.5716 31.6054C79.9816 29.6455 73.5655 33.3676 70.2177 39.6153C66.5986 46.3788 67.5137 54.3707 73.3524 57.3514C73.7295 57.5395 74.0918 57.6967 74.4596 57.8256C79.7851 59.6928 85.902 56.395 89.3551 50.6446L89.8212 49.8185C93.4402 43.0549 92.5251 35.0631 86.6864 32.0824C86.3263 31.8978 85.9538 31.7384 85.5716 31.6054ZM38.9923 32.4834C37.9425 32.1153 36.8355 31.9595 35.7225 32.0296C29.4329 32.4703 25.5109 39.4719 25.769 47.1904C25.9769 53.5059 28.957 59.0811 33.6733 60.7347C34.7231 61.1028 35.8301 61.2586 36.9432 61.1885C43.2328 60.7478 47.1547 53.7462 46.8966 46.0278C46.6887 39.7122 43.7087 34.137 38.9923 32.4834Z" fill="#F27B0D" fill-opacity="0.7"/>
</g>
<defs>
<clipPath id="clip0_173_244">
<rect width="97.44" height="97.44" fill="white" transform="translate(32.2402) rotate(19.3213)"/>
</clipPath>
</defs>
</svg>
