<svg width="64" height="59" viewBox="0 0 64 59" fill="none" xmlns="http://www.w3.org/2000/svg">
<path d="M31.1921 24.0624C27.6677 24.7511 26.1172 26.221 24.3701 30.7287L23.9263 31.9186L23.2306 33.9617C23.1485 34.212 23.0672 34.4626 22.9866 34.7134C22.5722 35.9974 21.8549 37.0218 20.5413 38.3568L19.2632 39.6183C17.0805 41.7828 16.023 43.3505 15.7254 45.7287C15.5707 46.6959 15.6471 48.1085 15.8779 49.247C16.7581 53.7513 20.6386 56.616 24.916 55.7802L25.559 55.638C25.8736 55.5599 26.1749 55.4705 26.4864 55.3625L27.1262 55.1183L27.464 54.9747L28.2029 54.6279L28.6119 54.4233L30.0452 53.672L31.9556 52.6251L33.0995 52.0246C34.4363 51.3476 35.4935 50.9415 36.4093 50.7625C37.3278 50.583 38.4579 50.5646 39.9507 50.6859L41.2366 50.8116L43.4027 51.0592L45.0111 51.2189L45.888 51.2804C46.1595 51.2939 46.4108 51.303 46.6493 51.3035L47.3339 51.2889C47.6631 51.2717 47.9759 51.2411 48.2968 51.195L48.9461 51.0848C53.2234 50.249 55.7402 46.1343 54.8569 41.614C54.6342 40.4739 54.1721 39.1449 53.6229 38.2349C52.615 36.425 51.1772 35.3227 48.7165 34.121L47.9312 33.7477L46.3232 33.0086C44.3638 32.0886 43.2142 31.3264 42.3109 30.25L41.337 29.0959L40.4388 28.074C36.8546 24.0731 35.0236 23.3137 31.1921 24.0624ZM50.3997 11.9934L50.3196 12.0091C47.0753 12.6985 44.6012 16.0814 43.8616 20.2119C42.9453 25.3112 44.8732 30.3259 48.9924 31.2203C49.7328 31.3777 50.4846 31.3805 51.2161 31.2376C54.5029 30.5953 57.0214 27.1844 57.7676 23.0165C58.6737 17.922 56.7346 12.9066 52.6346 12.0113C51.8994 11.8548 51.1374 11.8491 50.3997 11.9934ZM19.5969 6.92444C19.2978 6.98288 19.104 7.0263 18.8838 7.10536L18.6438 7.1966C14.6608 8.54589 13.2815 13.7578 15.0267 18.5893C16.6529 23.0531 20.5548 26.1409 24.4477 25.3803L24.9444 25.2694C25.0182 25.2483 25.0912 25.2248 25.1635 25.1988L25.4007 25.1081C29.3864 23.7583 30.7631 18.5469 29.0179 13.7154C27.396 9.2452 23.4951 6.16274 19.5969 6.92444Z" fill="#F27B0D" fill-opacity="0.7"/>
<path d="M35.4757 3.8218C31.5801 4.58299 29.1323 8.90876 29.314 13.6549C29.5138 18.7911 32.7509 23.1009 37.1361 22.8456C37.4179 22.8266 37.6806 22.7946 37.9369 22.7446C41.6482 22.0194 44.0667 18.0403 44.1144 13.5459L44.1039 12.9105C43.9041 7.77425 40.667 3.46438 36.2818 3.71973C36.0111 3.73506 35.7417 3.76917 35.4757 3.8218ZM8.84659 20.1129C8.11501 20.2558 7.42228 20.5409 6.80259 20.9586C3.31601 23.3446 3.42132 28.721 6.18595 33.0955C8.44618 36.6759 12.058 38.889 15.3448 38.2468C16.0764 38.1039 16.7691 37.8188 17.3888 37.4011C20.8754 35.0151 20.7701 29.6387 18.0055 25.2642C15.7452 21.6838 12.1334 19.4707 8.84659 20.1129Z" fill="#F27B0D" fill-opacity="0.7"/>
</svg>
