<svg
                width="270"
                height="58"
                viewBox="0 0 271 58"
                fill="none"
                xmlns="http://www.w3.org/2000/svg"
              >
                <path
                  d="M254.113 56.7188C250.731 56.7188 247.777 56.1101 245.252 54.8926C242.772 53.6751 240.833 51.9616 239.435 49.7521C238.083 47.4976 237.406 44.8597 237.406 41.8385V22.4942C237.496 21.5473 237.857 20.7582 238.488 20.1269C239.165 19.4505 239.954 19.1123 240.856 19.1123C241.848 19.1123 242.659 19.4505 243.291 20.1269C243.967 20.7582 244.305 21.5698 244.305 22.5618V30.1372H255.398C258.329 30.1372 260.944 30.6558 263.244 31.6929C265.589 32.6849 267.437 34.1504 268.79 36.0893C270.143 37.9832 270.819 40.2603 270.819 42.9207C270.819 45.5812 270.12 47.9485 268.722 50.0227C267.37 52.0969 265.453 53.7428 262.973 54.9602C260.493 56.1326 257.54 56.7188 254.113 56.7188ZM254.045 50.3609C256.931 50.3609 259.343 49.7521 261.282 48.5347C263.221 47.2721 264.191 45.4008 264.191 42.9207C264.191 40.576 263.357 38.8399 261.688 37.7126C260.02 36.5403 257.923 35.9541 255.398 35.9541H244.305V41.7033C244.305 43.3266 244.734 44.792 245.59 46.0997C246.447 47.4074 247.597 48.4445 249.04 49.211C250.528 49.9776 252.196 50.3609 254.045 50.3609Z"
                  fill="#FFB820"
                />
                <path
                  d="M199.64 56.1101C198.648 56.1101 197.814 55.7944 197.137 55.1631C196.506 54.4868 196.19 53.6526 196.19 52.6606V22.4942C196.281 21.5022 196.641 20.6905 197.273 20.0592C197.904 19.4279 198.693 19.1123 199.64 19.1123C200.677 19.1123 201.511 19.4279 202.143 20.0592C202.774 20.6905 203.089 21.5247 203.089 22.5618V34.1955H216.211V35.5482C218.691 35.5482 220.878 35.9766 222.772 36.8334C224.711 37.6901 226.222 38.885 227.304 40.4181C228.386 41.9062 228.927 43.6422 228.927 45.6262C228.927 47.6554 228.386 49.459 227.304 51.0373C226.222 52.6155 224.711 53.8555 222.772 54.7573C220.878 55.6592 218.691 56.1101 216.211 56.1101H199.64ZM203.089 49.6845H216.211C218.015 49.6845 219.48 49.2561 220.608 48.3994C221.735 47.4976 222.299 46.3477 222.299 44.9499C222.299 43.4618 221.735 42.2444 220.608 41.2974C219.48 40.3505 218.015 39.877 216.211 39.877H203.089V49.6845ZM210.868 37.8479V34.1955H217.293C218.421 34.1955 219.345 33.7671 220.066 32.9104C220.788 32.0085 221.149 30.8812 221.149 29.5285C221.149 28.3561 220.72 27.3866 219.864 26.6201C219.007 25.8535 217.925 25.4702 216.617 25.4702H199.708V19.1123H216.617C218.736 19.1123 220.608 19.5407 222.231 20.3974C223.899 21.2091 225.207 22.3589 226.154 23.8469C227.101 25.2899 227.574 26.9583 227.574 28.8521C227.574 31.4674 226.582 33.6318 224.598 35.3453C222.659 37.0137 220.224 37.8479 217.293 37.8479H210.868Z"
                  fill="#FFB820"
                />
                <path
                  d="M122.278 56.3808C118.671 56.3808 115.469 55.6368 112.674 54.1487C109.878 52.6607 107.691 50.609 106.113 47.9937C104.534 45.3333 103.723 42.3121 103.678 38.9303H106.992C106.992 35.5033 107.691 32.5047 109.089 29.9345C110.532 27.3191 112.493 25.2675 114.973 23.7794C117.498 22.2914 120.384 21.5474 123.631 21.5474C126.877 21.5474 129.741 22.2914 132.221 23.7794C134.746 25.2675 136.707 27.3191 138.105 29.9345C139.548 32.5047 140.27 35.5033 140.27 38.9303C140.27 42.3121 139.503 45.3333 137.97 47.9937C136.437 50.609 134.318 52.6607 131.612 54.1487C128.907 55.6368 125.795 56.3808 122.278 56.3808ZM122.278 50.2934C124.533 50.2934 126.494 49.8199 128.163 48.873C129.876 47.881 131.206 46.5282 132.153 44.8147C133.145 43.1013 133.641 41.1398 133.641 38.9303C133.641 36.7208 133.145 34.7818 132.153 33.1134C131.206 31.3999 129.876 30.0697 128.163 29.1228C126.494 28.1308 124.533 27.6348 122.278 27.6348C119.933 27.6348 117.859 28.1308 116.055 29.1228C114.252 30.0697 112.831 31.3999 111.794 33.1134C110.802 34.7818 110.306 36.7208 110.306 38.9303C110.306 41.1398 110.802 43.1013 111.794 44.8147C112.831 46.5282 114.252 47.881 116.055 48.873C117.859 49.8199 119.933 50.2934 122.278 50.2934ZM103.678 38.9303L103.745 31.2872C103.79 25.9664 105.256 21.0965 108.142 16.6775C111.073 12.2585 115.605 8.67372 121.737 5.92312L134.385 0.3092C135.287 -0.0515341 136.099 -0.0966253 136.82 0.173927C137.542 0.399385 138.06 0.91794 138.376 1.72959C138.691 2.58633 138.759 3.37544 138.579 4.0969C138.443 4.77328 137.79 5.38202 136.617 5.92312L122.887 12.2134C119.73 13.6564 117.138 15.3698 115.108 17.3539C113.079 19.3379 111.569 21.5699 110.577 24.05C109.63 26.4849 109.111 29.1228 109.021 31.9636L108.886 38.9303H103.678Z"
                  fill="#FFB820"
                />
                <path
                  d="M46.9271 56.1777C45.935 56.1777 45.1008 55.8621 44.4245 55.2308C43.7932 54.5544 43.4775 53.7202 43.4775 52.7282V22.5619C43.4775 21.5247 43.7932 20.6906 44.4245 20.0593C45.1008 19.428 45.935 19.1123 46.9271 19.1123C47.9642 19.1123 48.7984 19.428 49.4296 20.0593C50.0609 20.6906 50.3766 21.5247 50.3766 22.5619V52.7282C50.3766 53.7202 50.0609 54.5544 49.4296 55.2308C48.7984 55.8621 47.9642 56.1777 46.9271 56.1777ZM49.4973 40.2153C48.5504 40.2153 47.7838 39.9222 47.1976 39.336C46.6114 38.7498 46.3183 37.9832 46.3183 37.0363C46.3183 36.0894 46.6114 35.3228 47.1976 34.7366C47.7838 34.1504 48.5504 33.8573 49.4973 33.8573H59.7106C60.6575 33.8573 61.424 34.1504 62.0102 34.7366C62.5964 35.3228 62.8895 36.0894 62.8895 37.0363C62.8895 37.9832 62.5964 38.7498 62.0102 39.336C61.424 39.9222 60.6575 40.2153 59.7106 40.2153H49.4973ZM76.4847 56.3807C72.8322 56.3807 69.6082 55.5915 66.8125 54.0133C64.0168 52.39 61.8073 50.1805 60.184 47.3849C58.6058 44.5441 57.8167 41.2975 57.8167 37.645C57.8167 33.9475 58.6058 30.7009 60.184 27.9052C61.8073 25.0645 64.0168 22.855 66.8125 21.2767C69.6082 19.6534 72.8322 18.8418 76.4847 18.8418C80.092 18.8418 83.2935 19.6534 86.0892 21.2767C88.8849 22.855 91.0719 25.0645 92.6501 27.9052C94.2734 30.7009 95.085 33.9475 95.085 37.645C95.085 41.2975 94.2959 44.5441 92.7177 47.3849C91.1395 50.1805 88.9525 52.39 86.1569 54.0133C83.3612 55.5915 80.1371 56.3807 76.4847 56.3807ZM76.4847 50.2933C78.8295 50.2933 80.9037 49.7522 82.7073 48.67C84.511 47.5878 85.9089 46.0997 86.9009 44.2059C87.938 42.312 88.4565 40.1251 88.4565 37.645C88.4565 35.165 87.938 32.9781 86.9009 31.0842C85.9089 29.1453 84.511 27.6347 82.7073 26.5525C80.9037 25.4703 78.8295 24.9292 76.4847 24.9292C74.1399 24.9292 72.0657 25.4703 70.262 26.5525C68.4584 27.6347 67.038 29.1453 66.0009 31.0842C64.9637 32.9781 64.4452 35.165 64.4452 37.645C64.4452 40.1251 64.9637 42.312 66.0009 44.2059C67.038 46.0997 68.4584 47.5878 70.262 48.67C72.0657 49.7522 74.1399 50.2933 76.4847 50.2933Z"
                  fill="#FFB820"
                />
                <path
                  d="M17.6455 19.1802C18.3218 19.1802 18.9306 19.3605 19.4717 19.7213C20.0128 20.082 20.4411 20.6457 20.7568 21.4122L34.6901 51.6462C35.096 52.5481 35.141 53.3597 34.8254 54.0812C34.5098 54.7575 33.9687 55.2761 33.2021 55.6368C32.2101 56.0878 31.3533 56.2005 30.6319 55.975C29.9104 55.7496 29.3017 55.1859 28.8057 54.2841L16.0898 25.4028H19.5393L6.41761 54.2841C6.01179 55.1408 5.40305 55.7045 4.5914 55.975C3.82484 56.2005 2.9681 56.0878 2.02117 55.6368C1.16443 55.231 0.555689 54.6899 0.194955 54.0135C-0.120687 53.3372 -0.0530491 52.5481 0.397868 51.6462L14.3989 21.4122C15.0752 19.9242 16.1574 19.1802 17.6455 19.1802Z"
                  fill="#FFB820"
                />
                <path
                  d="M149.094 52.6822L149.509 53.7193C149.743 54.3034 150.093 54.834 150.538 55.2789C151.409 56.1501 152.591 56.6395 153.823 56.6395H156.285C157.423 56.6395 158.554 56.456 159.633 56.0961L162.073 55.2829L162.203 55.2569C164.372 54.8231 166.579 54.6046 168.791 54.6046H170.129C171.986 54.6046 173.837 54.8324 175.639 55.2829L177.647 56.086C178.561 56.4517 179.536 56.6395 180.521 56.6395C182.195 56.6395 183.824 56.0965 185.164 55.0918L185.589 54.7732C185.738 54.6609 185.88 54.5382 186.012 54.4059C186.754 53.6645 187.17 52.659 187.17 51.6104V49.5282C187.17 47.9653 186.762 46.4295 185.987 45.0726L184.457 42.3952L182.285 39.1369C181.023 37.2439 179.577 35.4802 177.968 33.8714L175.821 31.7245C175.25 31.153 174.61 30.6537 173.917 30.2379C172.381 29.316 170.623 28.8291 168.831 28.8291H166.507C164.937 28.8291 163.397 29.2557 162.051 30.0633C161.168 30.5928 160.387 31.2756 159.744 32.0793L152.577 41.0386L149.887 45.0735C148.987 46.4231 148.507 48.0088 148.507 49.6309C148.507 50.6761 148.706 51.7117 149.094 52.6822Z"
                  stroke="#FFB820"
                  stroke-width="2.71321"
                />
                <path
                  d="M160.923 46.4693L161.065 46.8154C161.149 47.0208 161.275 47.2068 161.434 47.3617C161.737 47.6566 162.143 47.8217 162.566 47.8217H163.449C163.846 47.8217 164.241 47.7592 164.62 47.6365L165.477 47.3584L165.521 47.3498C166.283 47.2015 167.058 47.1268 167.834 47.1268H168.305C168.956 47.1268 169.604 47.2046 170.237 47.3584L170.941 47.6324C171.262 47.7575 171.604 47.8217 171.949 47.8217C172.538 47.8217 173.111 47.6346 173.587 47.2874L173.807 47.1268C174.111 46.8307 174.283 46.4241 174.283 45.9994V45.3956C174.283 44.861 174.14 44.336 173.869 43.8749L173.331 42.9578L172.577 41.8567C172.129 41.2027 171.617 40.5947 171.048 40.0418L170.306 39.3194C170.102 39.1207 169.874 38.9477 169.628 38.804C169.092 38.4906 168.481 38.3254 167.86 38.3254H167.02C166.477 38.3254 165.944 38.4698 165.475 38.7436C165.161 38.9266 164.883 39.1638 164.652 39.4441L162.145 42.4945L161.196 43.879C160.884 44.335 160.717 44.8749 160.717 45.4276C160.717 45.7849 160.787 46.1388 160.923 46.4693Z"
                  stroke="#FFB820"
                  stroke-width="2.71321"
                />
                <path
                  d="M152.536 18.9901L154.928 22.065C155.602 22.9321 155.968 23.9993 155.968 25.0979V25.956C155.968 27.3013 155.208 28.5311 154.005 29.1327C153.512 29.3793 152.968 29.5076 152.417 29.5076H151.891C150.578 29.5076 149.305 29.061 148.281 28.2412L147.288 27.4471C146.746 27.0133 146.253 26.5208 145.819 25.9786L144.925 24.8601C144.17 23.9168 143.759 22.7448 143.759 21.5367V21.0716C143.759 19.9584 144.201 18.8909 144.988 18.1038C145.922 17.1696 147.242 16.7298 148.549 16.9167L149.098 16.9951C150.459 17.1895 151.692 17.9048 152.536 18.9901Z"
                  fill="#FFB820"
                />
                <path
                  d="M164.151 15.8382L164.594 18.6429C164.766 19.728 164.571 20.8393 164.04 21.8012L163.626 22.5525C162.976 23.7304 161.716 24.4401 160.372 24.3856C159.821 24.3632 159.283 24.2129 158.8 23.9466L158.34 23.6926C157.191 23.0586 156.292 22.0525 155.791 20.8397L155.305 19.6649C155.04 19.0231 154.846 18.354 154.729 17.6697C154.366 15.5655 154.731 13.4005 155.762 11.531L156.135 10.8556L156.18 10.7904C156.869 9.80784 158.093 9.35302 159.256 9.64758C159.629 9.74201 159.979 9.90992 160.286 10.1415L161.096 10.7522C162.735 11.9877 163.83 13.8111 164.151 15.8382Z"
                  fill="#FFB820"
                />
                <path
                  d="M184.571 26.7503L183.093 27.8734C182.218 28.5379 181.147 28.8918 180.048 28.8791L179.19 28.8693C177.845 28.8539 176.624 28.0797 176.036 26.8697C175.795 26.3737 175.673 25.8285 175.679 25.2771L175.685 24.7513C175.7 23.4391 176.162 22.1711 176.993 21.1558L177.799 20.1724C178.239 19.6351 178.737 19.1483 179.284 18.7208C180.966 17.4062 183.046 16.7033 185.181 16.7278L185.953 16.7367L186.357 16.7309C187.82 16.7098 188.928 18.0471 188.635 19.4808L188.541 20.088C188.131 22.7392 186.708 25.1277 184.571 26.7503Z"
                  fill="#FFB820"
                />
                <path
                  d="M176.879 17.8438L176.215 20.6049C175.959 21.6731 175.354 22.6252 174.495 23.3109L173.825 23.8464C172.774 24.686 171.338 24.8597 170.117 24.2951C169.617 24.0637 169.177 23.7189 168.833 23.2881L168.505 22.8773C167.686 21.8519 167.24 20.5784 167.241 19.2661L167.242 17.9949C167.243 17.3005 167.32 16.6083 167.473 15.9309C167.943 13.8481 169.108 11.9874 170.776 10.6548L171.379 10.1734L171.446 10.1306C172.458 9.48626 173.763 9.5344 174.725 10.2516C175.034 10.4815 175.293 10.7706 175.488 11.102L176.003 11.9762C177.044 13.7447 177.358 15.8483 176.879 17.8438Z"
                  stroke="#FFB820"
                  stroke-width="2.71321"
                />
              </svg>    