<svg width="34" height="34" viewBox="0 0 34 34" fill="none" xmlns="http://www.w3.org/2000/svg">
<path d="M6.37467 17.177C5.38301 17.177 4.54481 16.8346 3.86009 16.1499C3.17537 15.4652 2.83301 14.627 2.83301 13.6353C2.83301 12.6437 3.17537 11.8055 3.86009 11.1208C4.54481 10.436 5.38301 10.0937 6.37467 10.0937C7.36634 10.0937 8.20454 10.436 8.88926 11.1208C9.57398 11.8055 9.91634 12.6437 9.91634 13.6353C9.91634 14.627 9.57398 15.4652 8.88926 16.1499C8.20454 16.8346 7.36634 17.177 6.37467 17.177ZM12.7497 11.5103C11.758 11.5103 10.9198 11.168 10.2351 10.4833C9.55037 9.79853 9.20801 8.96034 9.20801 7.96867C9.20801 6.977 9.55037 6.13881 10.2351 5.45409C10.9198 4.76936 11.758 4.427 12.7497 4.427C13.7413 4.427 14.5795 4.76936 15.2643 5.45409C15.949 6.13881 16.2913 6.977 16.2913 7.96867C16.2913 8.96034 15.949 9.79853 15.2643 10.4833C14.5795 11.168 13.7413 11.5103 12.7497 11.5103ZM21.2497 11.5103C20.258 11.5103 19.4198 11.168 18.7351 10.4833C18.0504 9.79853 17.708 8.96034 17.708 7.96867C17.708 6.977 18.0504 6.13881 18.7351 5.45409C19.4198 4.76936 20.258 4.427 21.2497 4.427C22.2413 4.427 23.0795 4.76936 23.7643 5.45409C24.449 6.13881 24.7913 6.977 24.7913 7.96867C24.7913 8.96034 24.449 9.79853 23.7643 10.4833C23.0795 11.168 22.2413 11.5103 21.2497 11.5103ZM27.6247 17.177C26.633 17.177 25.7948 16.8346 25.1101 16.1499C24.4254 15.4652 24.083 14.627 24.083 13.6353C24.083 12.6437 24.4254 11.8055 25.1101 11.1208C25.7948 10.436 26.633 10.0937 27.6247 10.0937C28.6163 10.0937 29.4545 10.436 30.1393 11.1208C30.824 11.8055 31.1663 12.6437 31.1663 13.6353C31.1663 14.627 30.824 15.4652 30.1393 16.1499C29.4545 16.8346 28.6163 17.177 27.6247 17.177ZM9.42051 31.3437C8.35801 31.3437 7.46645 30.9366 6.74584 30.1225C6.02523 29.3084 5.6654 28.346 5.66634 27.2353C5.66634 26.0076 6.08567 24.9333 6.92434 24.0124C7.76301 23.0916 8.59506 22.1826 9.42051 21.2853C10.1052 20.5534 10.6955 19.7568 11.1913 18.8954C11.6872 18.0341 12.2775 17.2252 12.9622 16.4687C13.4816 15.8548 14.0837 15.3471 14.7684 14.9458C15.4531 14.5444 16.1969 14.3437 16.9997 14.3437C17.8025 14.3437 18.5462 14.5326 19.2309 14.9103C19.9156 15.2881 20.5177 15.7839 21.0372 16.3978C21.6983 17.1534 22.2829 17.968 22.791 18.8416C23.2991 19.7152 23.8951 20.5298 24.5788 21.2853C25.4052 22.1826 26.2373 23.0916 27.075 24.0124C27.9127 24.9333 28.3321 26.0076 28.333 27.2353C28.333 28.3451 27.9727 29.3074 27.2521 30.1225C26.5315 30.9376 25.6404 31.3446 24.5788 31.3437C23.3038 31.3437 22.0406 31.2374 20.7893 31.0249C19.5379 30.8124 18.2747 30.7062 16.9997 30.7062C15.7247 30.7062 14.4615 30.8124 13.2101 31.0249C11.9587 31.2374 10.6955 31.3437 9.42051 31.3437Z" fill="black"/>
</svg>
