<svg width="55" height="50" viewBox="0 0 55 50" fill="none" xmlns="http://www.w3.org/2000/svg">
<path d="M26.9068 20.3298C23.6184 20.5957 22.0514 21.778 19.9924 25.7133L19.4647 26.754L18.6192 28.5475C18.5185 28.7677 18.4185 28.9881 18.3191 29.2087C17.8086 30.3383 17.0482 31.1997 15.7115 32.2832L14.4148 33.3032C12.1993 35.0546 11.0725 36.3769 10.5559 38.5175C10.3151 39.3845 10.2394 40.682 10.3329 41.7452C10.6726 45.948 13.9204 48.9628 17.9114 48.6401L18.5131 48.5765C18.8084 48.5375 19.0926 48.487 19.3882 48.4205L19.9974 48.2634L20.3206 48.1671L21.0308 47.9266L21.4254 47.7819L22.8111 47.2435L24.663 46.4845L25.7692 46.054C27.0594 45.5736 28.0663 45.3117 28.9208 45.2426C29.7778 45.1733 30.8114 45.2728 32.1618 45.5373L33.3227 45.7845L35.2748 46.2335L36.7268 46.5449L37.521 46.6913C37.7675 46.7316 37.9959 46.7658 38.2136 46.7908L38.8401 46.848C39.1424 46.8662 39.4312 46.8704 39.7288 46.8614L40.3329 46.8276C44.324 46.505 47.0453 43.0076 46.7043 38.7899C46.6183 37.7261 46.3334 36.4653 45.9256 35.5779C45.1919 33.8218 43.9927 32.6675 41.87 31.317L41.1914 30.8954L39.7995 30.055C38.1055 29.0134 37.1344 28.1992 36.4206 27.1235L35.6502 25.9696L34.9354 24.9442C32.0752 20.9226 30.4818 20.0408 26.9068 20.3298ZM45.6848 11.2892L45.6101 11.2952C42.5772 11.5905 39.9702 14.4242 38.8697 18.119C37.5082 22.68 38.7519 27.4566 42.4205 28.6972C43.0802 28.9172 43.7662 28.9972 44.4488 28.942C47.5156 28.6941 50.166 25.8393 51.2764 22.1111C52.6281 17.5534 51.3742 12.7751 47.7233 11.5356C47.0682 11.317 46.3732 11.2333 45.6848 11.2892ZM18.0855 3.49004C17.8065 3.51259 17.6251 3.53228 17.4159 3.58178L17.1875 3.64037C13.4123 4.46211 11.6164 9.07826 12.7122 13.6688C13.7372 17.9115 16.9816 21.1322 20.6139 20.8385L21.0787 20.7884C21.1483 20.7768 21.2174 20.7629 21.286 20.7466L21.512 20.6882C25.2896 19.8663 27.083 15.2503 25.9872 10.6598C24.9668 6.41174 21.7228 3.196 18.0855 3.49004Z" fill="#F27B0D" fill-opacity="0.7"/>
<path d="M32.901 2.29248C29.2662 2.58631 26.5861 6.28346 26.2634 10.6351C25.9169 15.3447 28.4285 19.6126 32.4582 19.831C32.7174 19.8427 32.9605 19.8406 33.1997 19.8212C36.6625 19.5413 39.2802 16.1576 39.7864 12.0595L39.8423 11.4782C40.1887 6.76861 37.6772 2.50067 33.6474 2.28229C33.3987 2.26841 33.1493 2.27182 32.901 2.29248ZM6.9129 14.4236C6.23029 14.4788 5.56852 14.6677 4.95978 14.9852C1.53107 16.8045 1.07366 21.7237 3.14722 26.002C4.84203 29.5034 7.9116 31.8957 10.9784 31.6478C11.661 31.5926 12.3227 31.4037 12.9315 31.0862C16.3602 29.2669 16.8176 24.3477 14.744 20.0694C13.0492 16.568 9.97966 14.1757 6.9129 14.4236Z" fill="#F27B0D" fill-opacity="0.7"/>
</svg>
